<?xml version="1.0" encoding="UTF-8"?>
<svg version="1.1" xmlns="http://www.w3.org/2000/svg" width="124" height="33">
<path d="M0 0 C4.11025622 2.42048422 6.51250517 4.68568708 8.609375 9.0546875 C9.41239003 14.83494884 9.40305029 20.24510785 7.046875 25.6171875 C2.27504295 30.38901955 -1.26126784 32.28192158 -7.953125 32.5546875 C-12.86308438 32.35318438 -15.66662057 31.42402484 -19.390625 28.0546875 C-20.339375 27.2503125 -21.288125 26.4459375 -22.265625 25.6171875 C-25.35940945 21.64379767 -25.19312527 17.11524187 -25.015625 12.26171875 C-24.02774207 7.19264448 -21.41200207 4.16880267 -17.390625 1.0546875 C-12.23095867 -2.1383847 -5.58746999 -2.20942441 0 0 Z " fill="#60BA47" transform="translate(24.390625,0.9453125)"/>
<path d="M0 0 C0.89847656 -0.00257812 1.79695313 -0.00515625 2.72265625 -0.0078125 C4.9375 0.125 4.9375 0.125 5.9375 1.125 C6.07865161 3.79558851 5.97997107 6.44932238 5.9375 9.125 C2.9375 8.125 2.9375 8.125 1.5625 6.0625 C0.06806566 3.81936512 0.06806566 3.81936512 -2.75 3.875 C-3.513125 3.9575 -4.27625 4.04 -5.0625 4.125 C-5.83492269 5.96200789 -5.83492269 5.96200789 -6.0625 8.125 C-4.04292678 10.60766008 -1.87725207 11.85912381 1 13.1875 C3.51568969 14.35399298 4.94801026 15.13551026 6.9375 17.125 C7.81549405 21.82919968 7.56128518 25.19877352 4.875 29.1875 C-0.25655547 32.57214297 -5.2840051 31.2525112 -11.0625 30.125 C-11.0625 26.825 -11.0625 23.525 -11.0625 20.125 C-10.0725 20.125 -9.0825 20.125 -8.0625 20.125 C-7.4025 22.105 -6.7425 24.085 -6.0625 26.125 C-3.7364143 26.50563221 -1.40194736 26.83769945 0.9375 27.125 C2.23383621 26.05854885 2.23383621 26.05854885 2 23.5625 C1.979375 22.758125 1.95875 21.95375 1.9375 21.125 C1.16664062 20.72667969 0.39578125 20.32835938 -0.3984375 19.91796875 C-1.40132812 19.38816406 -2.40421875 18.85835937 -3.4375 18.3125 C-4.43523438 17.79042969 -5.43296875 17.26835937 -6.4609375 16.73046875 C-9.0625 15.125 -9.0625 15.125 -11.0625 12.125 C-11.73342652 5.97484026 -11.73342652 5.97484026 -9.1875 2.75 C-5.91331037 0.24620793 -4.07472263 -0.01172582 0 0 Z " fill="#FFFFFF" transform="translate(48.0625,-0.125)"/>
<path d="M0 0 C2.97 0 5.94 0 9 0 C8.67 1.32 8.34 2.64 8 4 C8.87050779 7.19623648 8.87050779 7.19623648 10 10 C10.99 7.69 11.98 5.38 13 3 C12.34 3 11.68 3 11 3 C11.33 2.01 11.66 1.02 12 0 C14.64 0 17.28 0 20 0 C19.690625 0.8353125 19.690625 0.8353125 19.375 1.6875 C18.89304789 4.659538 19.73434972 6.31979941 21 9 C22.68630119 5.48966871 22.68630119 5.48966871 22.625 1.6875 C22.41875 1.130625 22.2125 0.57375 22 0 C24.64 0 27.28 0 30 0 C30 0.99 30 1.98 30 3 C29.01 3 28.02 3 27 3 C26.87753906 3.71542969 26.75507812 4.43085938 26.62890625 5.16796875 C25.98864625 8.05112713 25.06448444 10.58592473 23.9375 13.3125 C23.57527344 14.19550781 23.21304688 15.07851563 22.83984375 15.98828125 C22.56269531 16.65214844 22.28554687 17.31601562 22 18 C20.68 18 19.36 18 18 18 C17.01 15.36 16.02 12.72 15 10 C13.35 12.97 11.7 15.94 10 19 C9.34 19 8.68 19 8 19 C7.59007813 17.92878906 7.18015625 16.85757812 6.7578125 15.75390625 C6.21390592 14.35662899 5.66961517 12.95950123 5.125 11.5625 C4.85558594 10.85544922 4.58617188 10.14839844 4.30859375 9.41992188 C3.01963058 5.50053375 3.01963058 5.50053375 0 3 C0 2.01 0 1.02 0 0 Z " fill="#FFFFFF" transform="translate(73,12)"/>
<path d="M0 0 C2 2 2 2 2.1953125 5.0390625 C2.17210938 6.22242188 2.14890625 7.40578125 2.125 8.625 C2.10695313 9.81351563 2.08890625 11.00203125 2.0703125 12.2265625 C2.04710938 13.14179688 2.02390625 14.05703125 2 15 C2.99 15 3.98 15 5 15 C5 15.99 5 16.98 5 18 C1.71303767 18.79953138 0.28976808 19.09658936 -3 18 C-5.33491639 18.32205743 -7.66842508 18.65458149 -10 19 C-11 18 -11 18 -11.4375 15.1875 C-11 12 -11 12 -8.125 9.625 C-5 8 -5 8 -3 8 C-3 6.35 -3 4.7 -3 3 C-4.32 3 -5.64 3 -7 3 C-7.33 4.65 -7.66 6.3 -8 8 C-9.32 7.67 -10.64 7.34 -12 7 C-9.73485872 0.37881781 -6.83355673 -0.49698594 0 0 Z M-5 11 C-5.33 12.65 -5.66 14.3 -6 16 C-5.01 15.67 -4.02 15.34 -3 15 C-3 13.68 -3 12.36 -3 11 C-3.66 11 -4.32 11 -5 11 Z " fill="#FFFFFF" transform="translate(114,12)"/>
<path d="M0 0 C1.9375 1.1875 1.9375 1.1875 3 3 C3 4.65 3 6.3 3 8 C-0.63 8 -4.26 8 -8 8 C-6.54711014 12.5841963 -6.54711014 12.5841963 -5 14 C-1.27775401 14.29386153 -0.22213757 14.14809171 3 12 C3 16 3 16 1.375 17.75 C-1.75329006 19.39646846 -3.50592882 19.5704606 -7 19 C-10.19496641 16.58602538 -11.70703843 14.86057462 -13 11.0625 C-13 7.25275797 -12.033189 5.19501129 -10 2 C-6.30513897 -0.46324069 -4.36706908 -0.38991688 0 0 Z M-6 3 C-6.33 3.66 -6.66 4.32 -7 5 C-5.35 5 -3.7 5 -2 5 C-2 4.34 -2 3.68 -2 3 C-3.32 3 -4.64 3 -6 3 Z " fill="#FFFFFF" transform="translate(70,12)"/>
<path d="M0 0 C2 2 2 2 2 6 C-1.63 6.33 -5.26 6.66 -9 7 C-7.73025028 11.41522109 -7.73025028 11.41522109 -5 15 C-1.93008319 14.83557723 -1.93008319 14.83557723 1 14 C1.33 13.34 1.66 12.68 2 12 C2.66 12 3.32 12 4 12 C2.84826645 14.46800047 1.95216435 16.04783565 0 18 C-3.08542024 18.40464528 -5.04000327 18.6395404 -8 18 C-11.57242969 14.94854964 -12.82856498 13.08575513 -13.5625 8.4375 C-12.91429589 4.47625263 -11.81200626 2.81200626 -9 0 C-5.88135455 -1.55932272 -3.33704665 -0.65549131 0 0 Z " fill="#D8EED2" transform="translate(20,8)"/>
<path d="M0 0 C1.32 0.66 2.64 1.32 4 2 C3.34 2 2.68 2 2 2 C3.26974972 6.41522109 3.26974972 6.41522109 6 10 C9.06991681 9.83557723 9.06991681 9.83557723 12 9 C12.33 8.34 12.66 7.68 13 7 C13.66 7 14.32 7 15 7 C13.84826645 9.46800047 12.95216435 11.04783565 11 13 C4.11111111 13.66666667 4.11111111 13.66666667 0.5 11.5 C-1.70532305 7.82446159 -1.34826821 5.24887214 -1 1 C-0.67 0.67 -0.34 0.34 0 0 Z " fill="#F1F8EF" transform="translate(9,13)"/>
<path d="M0 0 C1.65 0.33 3.3 0.66 5 1 C5 1.99 5 2.98 5 4 C2.69 4 0.38 4 -2 4 C-1.34 2.68 -0.68 1.36 0 0 Z " fill="#67BC4F" transform="translate(13,9)"/>
<path d="M0 0 C1.98 0 3.96 0 6 0 C6 1.32 6 2.64 6 4 C4.35 4 2.7 4 1 4 C0.67 2.68 0.34 1.36 0 0 Z " fill="#FFFFFF" transform="translate(118,12)"/>
</svg>
