<?xml version="1.0" encoding="UTF-8"?>
<svg version="1.1" xmlns="http://www.w3.org/2000/svg" width="1513" height="575">
<path d="M0 0 C10.22185703 8.44371405 10.22185703 8.44371405 12 12 C12.03758423 10.78098999 12.03758423 10.78098999 12.07592773 9.53735352 C12.19149118 5.87889248 12.31439584 2.22071472 12.4375 -1.4375 C12.47681641 -2.71689453 12.51613281 -3.99628906 12.55664062 -5.31445312 C12.59853516 -6.52939453 12.64042969 -7.74433594 12.68359375 -8.99609375 C12.73858032 -10.68496704 12.73858032 -10.68496704 12.79467773 -12.40795898 C13 -15 13 -15 14 -16 C15.55999048 -16.09846967 17.12440544 -16.12798618 18.6875 -16.12939453 C19.68523437 -16.13254669 20.68296875 -16.13569885 21.7109375 -16.13894653 C22.79632812 -16.1369223 23.88171875 -16.13489807 25 -16.1328125 C26.65902344 -16.13424759 26.65902344 -16.13424759 28.3515625 -16.13571167 C30.69531308 -16.13639367 33.03906553 -16.13453804 35.3828125 -16.13037109 C38.98441788 -16.12502314 42.58589853 -16.13031547 46.1875 -16.13671875 C48.45833361 -16.13605797 50.72916714 -16.13477682 53 -16.1328125 C54.08539062 -16.13483673 55.17078125 -16.13686096 56.2890625 -16.13894653 C57.28679687 -16.13579437 58.28453125 -16.13264221 59.3125 -16.12939453 C60.19550781 -16.12859894 61.07851563 -16.12780334 61.98828125 -16.12698364 C64 -16 64 -16 65 -15 C65.09997085 -12.46033403 65.134411 -9.94779924 65.12698364 -7.40759277 C65.12854363 -6.6029841 65.13010362 -5.79837543 65.13171089 -4.96938467 C65.13572421 -2.25235803 65.13252997 0.46461349 65.12939453 3.18164062 C65.13074843 5.12102796 65.13252829 7.06041505 65.13470459 8.99980164 C65.13928034 14.28270531 65.13748878 19.56558955 65.1343255 24.84849358 C65.13180263 30.36404347 65.13413924 35.87959165 65.13571167 41.3951416 C65.13753358 50.65942688 65.1351265 59.92370421 65.13037109 69.18798828 C65.12492843 79.91537886 65.12669108 90.64275044 65.1321975 101.37014055 C65.13672802 110.56245859 65.13737948 119.75477088 65.13475883 128.94708967 C65.13319572 134.44514242 65.13300321 139.94318622 65.13629532 145.4412384 C65.13917315 150.60886848 65.13719996 155.77647393 65.13140106 160.94410133 C65.13007299 162.84649934 65.13046837 164.74889941 65.13266373 166.65129662 C65.1353734 169.23675714 65.13199637 171.82213744 65.12698364 174.40759277 C65.12921436 175.17051463 65.13144509 175.93343648 65.13374341 176.71947718 C65.11414985 181.88585015 65.11414985 181.88585015 64 183 C62.44000952 183.09846967 60.87559456 183.12798618 59.3125 183.12939453 C58.31476563 183.13254669 57.31703125 183.13569885 56.2890625 183.13894653 C55.20367188 183.1369223 54.11828125 183.13489807 53 183.1328125 C51.34097656 183.13424759 51.34097656 183.13424759 49.6484375 183.13571167 C47.30468692 183.13639367 44.96093447 183.13453804 42.6171875 183.13037109 C39.01558212 183.12502314 35.41410147 183.13031547 31.8125 183.13671875 C29.54166639 183.13605797 27.27083286 183.13477682 25 183.1328125 C23.91460938 183.13483673 22.82921875 183.13686096 21.7109375 183.13894653 C20.71320313 183.13579437 19.71546875 183.13264221 18.6875 183.12939453 C17.80449219 183.12859894 16.92148437 183.12780334 16.01171875 183.12698364 C14 183 14 183 13 182 C12.84174742 180.00217874 12.74880829 177.99911166 12.68359375 175.99609375 C12.62075195 174.17368164 12.62075195 174.17368164 12.55664062 172.31445312 C12.51732422 171.03505859 12.47800781 169.75566406 12.4375 168.4375 C12.39431641 167.15423828 12.35113281 165.87097656 12.30664062 164.54882812 C12.200152 161.36600147 12.09814038 158.18309326 12 155 C11.33774414 155.78685181 11.33774414 155.78685181 10.66210938 156.58959961 C-0.76511536 169.94539865 -15.76943603 178.45012153 -33 182 C-33.86496094 182.18304688 -34.72992187 182.36609375 -35.62109375 182.5546875 C-60.38082708 185.81781998 -83.69742694 180.44179867 -104.03125 165.8203125 C-123.61614928 150.42496642 -135.96558146 126.63084611 -139.4921875 102.07421875 C-143.02324633 71.49874287 -138.17826022 39.95659746 -118.6875 15.25 C-89.49397808 -18.66962328 -36.70614198 -27.77323132 0 0 Z M-75 43 C-86.47217959 56.85600912 -90.60133643 73.30338944 -89 91 C-86.83879426 106.53800878 -80.2204986 119.90162391 -68 130 C-56.92001716 138.02109187 -44.45478522 141.40687851 -30.8359375 139.57421875 C-17.19885702 137.10986829 -5.507217 131.15938175 3 120 C12.93090448 104.13543192 16.17640688 85.79429241 12.125 67.33203125 C8.37057612 53.31094085 0.51318801 41.72018789 -12.02734375 34.1796875 C-20.55502007 29.72765976 -28.31167858 27.61580326 -37.875 27.6875 C-38.66656494 27.69313965 -39.45812988 27.6987793 -40.27368164 27.70458984 C-53.22641272 27.97313666 -66.07442722 33.38452788 -75 43 Z " fill="#DC0019" transform="translate(789,234)"/>
<path d="M0 0 C1.46657043 -0.00472824 1.46657043 -0.00472824 2.96276855 -0.009552 C4.0262854 -0.00752777 5.08980225 -0.00550354 6.18554688 -0.00341797 C7.81127625 -0.00485306 7.81127625 -0.00485306 9.46984863 -0.00631714 C11.76652077 -0.00699912 14.06319482 -0.00514358 16.35986328 -0.00097656 C19.88904115 0.00437141 23.41809174 -0.00092097 26.94726562 -0.00732422 C29.17252632 -0.00666344 31.39778694 -0.00538228 33.62304688 -0.00341797 C34.68656372 -0.0054422 35.75008057 -0.00746643 36.8458252 -0.009552 C37.82353882 -0.00639984 38.80125244 -0.00324768 39.80859375 0 C40.67383667 0.00079559 41.53907959 0.00159119 42.43054199 0.00241089 C44.40429688 0.12939453 44.40429688 0.12939453 45.40429688 1.12939453 C45.51162121 2.46964995 45.55107968 3.81543031 45.56251526 5.15992737 C45.57230408 6.0279599 45.5820929 6.89599243 45.59217834 7.79032898 C45.60081154 9.22962517 45.60081154 9.22962517 45.60961914 10.69799805 C45.61951874 11.70276184 45.62941833 12.70752563 45.63961792 13.74273682 C45.67133772 17.08123374 45.6960316 20.41974492 45.72070312 23.75830078 C45.74126361 26.0661609 45.76225983 28.37401717 45.78367615 30.68186951 C45.83899034 36.7695302 45.88835825 42.8572254 45.93652344 48.94494629 C45.98667039 55.15164273 46.0423919 61.35828879 46.09765625 67.56494141 C46.20535208 79.75304945 46.30677151 91.94120116 46.40429688 104.12939453 C46.80973221 103.37285583 47.21516754 102.61631714 47.63288879 101.83685303 C48.16822739 100.84510071 48.70356598 99.85334839 49.25512695 98.83154297 C49.78431229 97.84812927 50.31349762 96.86471558 50.85871887 95.85150146 C57.79607926 83.63326545 70.0574484 75.09027361 83.40429688 71.12939453 C102.00321873 66.36890449 123.7812428 67.21423731 141.15429688 75.69189453 C158.94029767 86.39024087 168.29703392 103.32605856 173.40429688 122.97705078 C175.70084824 133.30049082 176.55081581 143.05577503 176.51782227 153.60400391 C176.51796829 154.83412201 176.51811432 156.06424011 176.51826477 157.33163452 C176.51769013 160.68231816 176.51269712 164.03293912 176.50569081 167.38361168 C176.49941219 170.89363798 176.49884992 174.40366524 176.49766541 177.91369629 C176.49456533 184.5503901 176.48636988 191.18706731 176.47631592 197.82375383 C176.46511355 205.38364811 176.45963396 212.9435432 176.45462048 220.50344372 C176.44418609 236.04543855 176.42585717 251.58741054 176.40429688 267.12939453 C159.57429687 267.12939453 142.74429688 267.12939453 125.40429688 267.12939453 C125.34822266 254.56103516 125.34822266 254.56103516 125.29101562 241.73876953 C125.25686735 235.73830606 125.22087173 229.73787582 125.18221951 223.73744202 C125.13246122 215.97488145 125.08698532 208.2123754 125.05786133 200.44970703 C125.0323027 193.64148183 124.99131454 186.83348571 124.94111061 180.02539825 C124.92448587 177.43405146 124.91294435 174.84266667 124.90668297 172.25127411 C124.89699428 168.60852768 124.86887694 164.9663382 124.83666992 161.32373047 C124.83810501 160.26348663 124.8395401 159.2032428 124.84101868 158.11087036 C124.69020857 145.97011127 122.24695455 133.84533633 113.29492188 125.05908203 C103.64452033 117.10582007 92.69615334 115.09290782 80.40429688 116.12939453 C69.44464045 118.36475569 60.11035906 122.60172601 53.68164062 132.00439453 C47.30911599 142.60578109 46.11133848 153.56172297 46.08544922 165.7512207 C46.07038078 167.40686035 46.07038078 167.40686035 46.05500793 169.09594727 C46.02438564 172.70474783 46.00719938 176.31347494 45.99023438 179.92236328 C45.97150586 182.44013593 45.95193121 184.95790242 45.93154907 187.47566223 C45.88561351 193.40035542 45.84814209 199.32506292 45.8148762 205.24983722 C45.76595586 213.85375155 45.6996752 222.4575358 45.63555908 231.06134796 C45.54755683 243.08398964 45.47764182 255.10661428 45.40429688 267.12939453 C28.57429688 267.12939453 11.74429687 267.12939453 -5.59570312 267.12939453 C-5.61772929 233.2595877 -5.63620085 199.3897878 -5.64676845 165.51997596 C-5.64801923 161.52560571 -5.64931355 157.53123547 -5.65063477 153.53686523 C-5.65089708 152.74162402 -5.65115939 151.9463828 -5.65142965 151.12704336 C-5.65578654 138.23346281 -5.66367419 125.33988671 -5.67285592 112.4463088 C-5.68219193 99.22628918 -5.68775862 86.00627189 -5.68979162 72.7862491 C-5.69116696 64.62213518 -5.69551813 56.45803379 -5.70361959 48.29392373 C-5.70950705 42.04437546 -5.71016222 35.79483684 -5.70881081 29.54528618 C-5.70908734 26.97367653 -5.7110952 24.40206643 -5.7149086 21.83045959 C-5.7198386 18.33630103 -5.71870399 14.84219739 -5.71595764 11.34803772 C-5.7203269 9.79991861 -5.7203269 9.79991861 -5.72478443 8.22052437 C-5.72279339 7.2919501 -5.72080234 6.36337583 -5.71875095 5.40666294 C-5.71913067 4.5989978 -5.71951039 3.79133266 -5.71990162 2.95919281 C-5.46908877 -0.73599623 -3.15740666 0.00290324 0 0 Z " fill="#DC0019" transform="translate(455.595703125,149.87060546875)"/>
<path d="M0 0 C0.97763809 -0.00315216 1.95527618 -0.00630432 2.96253967 -0.009552 C4.02089523 -0.00752777 5.07925079 -0.00550354 6.16967773 -0.00341797 C7.25208237 -0.00437469 8.334487 -0.00533142 9.44969177 -0.00631714 C11.74038755 -0.00699845 14.03108526 -0.00514758 16.32177734 -0.00097656 C19.84208477 0.00437752 23.3622649 -0.0009259 26.88256836 -0.00732422 C29.10327177 -0.00666353 31.3239751 -0.00538256 33.54467773 -0.00341797 C35.13524742 -0.00645432 35.13524742 -0.00645432 36.75794983 -0.009552 C38.21967873 -0.00482376 38.21967873 -0.00482376 39.7109375 0 C40.57316422 0.00079559 41.43539093 0.00159119 42.32374573 0.00241089 C44.29077148 0.12939453 44.29077148 0.12939453 45.29077148 1.12939453 C45.39986065 3.19200959 45.43768551 5.25840089 45.44898987 7.3238678 C45.45639683 8.305202 45.45639683 8.305202 45.46395344 9.30636114 C45.47939976 11.51437804 45.48770822 13.72236572 45.49609375 15.93041992 C45.50566668 17.50690471 45.51567641 19.08338689 45.52609253 20.65986633 C45.5532111 24.95304206 45.57418289 29.24622886 45.59409451 33.53944325 C45.61591134 38.02114348 45.64332101 42.5028093 45.67015076 46.98448181 C45.72013602 55.47717868 45.76505313 63.96989458 45.80817312 72.46262878 C45.85749575 82.12875434 45.91243227 91.7948454 45.96785271 101.46093762 C46.08176228 121.35039114 46.18858168 141.23987757 46.29077148 161.12939453 C48.34382837 158.60935274 50.39553387 156.08821391 52.44702148 153.56689453 C53.3079541 152.51018555 53.3079541 152.51018555 54.1862793 151.43212891 C57.76541851 147.03171412 61.30197264 142.60173218 64.79077148 138.12939453 C69.2752704 132.39121887 73.85029538 126.73251314 78.45483398 121.09033203 C82.40429162 116.24241958 86.28287344 111.34422607 90.12890625 106.4140625 C92.53584975 103.33710026 94.96860341 100.28518925 97.44311523 97.26220703 C97.98967773 96.59447266 98.53624023 95.92673828 99.09936523 95.23876953 C100.12107889 93.99409198 101.14541991 92.75156156 102.17358398 91.51220703 C102.6647168 90.91408203 103.15584961 90.31595703 103.66186523 89.69970703 C104.22405762 89.04647461 104.78625 88.39324219 105.36547852 87.72021484 C106.99733185 85.52426917 108.16641648 83.50615761 109.4152832 81.09326172 C112.55287765 75.48604939 115.64017719 70.22020655 122.08981323 68.29302979 C130.22273018 67.11963449 138.36908074 67.67223701 146.54077148 68.12939453 C149.03924124 68.20974993 151.53795949 68.28273671 154.03686523 68.34814453 C160.12696803 68.52350615 166.2077049 68.79028226 172.29077148 69.12939453 C171.4228963 73.37309919 169.22720644 76.07987275 166.54077148 79.37939453 C166.05415039 79.98783203 165.5675293 80.59626953 165.06616211 81.22314453 C163.48230489 83.19844936 161.88800455 85.16489351 160.29077148 87.12939453 C159.75774414 87.78617187 159.2247168 88.44294922 158.67553711 89.11962891 C156.49618318 91.80373067 154.31524889 94.48651658 152.12963867 97.16552734 C148.63683751 101.45148974 145.1934291 105.77160495 141.79077148 110.12939453 C137.84882193 115.17785624 133.8405194 120.16701061 129.79077148 125.12939453 C124.66461287 131.41093678 119.62157513 137.75175751 114.63061523 144.14111328 C112.53451093 146.81810793 110.42010209 149.47879592 108.29077148 152.12939453 C109.93073738 157.40672067 113.25788278 161.40424567 116.54077148 165.75439453 C117.8156257 167.46394447 119.09036201 169.17358234 120.36499023 170.88330078 C121.01773926 171.75486816 121.67048828 172.62643555 122.34301758 173.52441406 C125.36522852 177.56640337 128.36014237 181.62834699 131.35327148 185.69189453 C132.22193848 186.86969482 132.22193848 186.86969482 133.1081543 188.07128906 C137.57815715 194.13986078 141.99434674 200.24599024 146.39868164 206.36230469 C153.22373194 215.82904364 160.17135587 225.20547081 167.10961914 234.58935547 C174.59027953 244.70895436 182.01898694 254.85841774 189.29077148 265.12939453 C188.96077148 265.78939453 188.63077148 266.44939453 188.29077148 267.12939453 C181.0682586 267.52600743 173.84813914 267.82661103 166.61688614 268.01020145 C163.25553366 268.09844853 159.90730445 268.22680302 156.54907227 268.41186523 C134.91267677 269.5736858 134.91267677 269.5736858 128.95635986 265.5539856 C125.09054249 261.64246392 122.60205253 257.12613362 120.28295898 252.17715454 C119.01334966 249.55682803 117.40109484 247.32577086 115.62670898 245.02392578 C115.13041992 244.33878906 114.63413086 243.65365234 114.12280273 242.94775391 C113.40157227 241.95485352 113.40157227 241.95485352 112.66577148 240.94189453 C108.45373912 235.12647514 104.26084183 229.29840348 100.09448242 223.45019531 C96.72332839 218.72328045 93.32060029 214.01958873 89.91577148 209.31689453 C84.13047234 201.32274079 78.42332821 193.27546501 72.75366211 185.19897461 C70.6109131 182.16758553 68.4484646 179.15016489 66.29077148 176.12939453 C55.89577148 175.63439453 55.89577148 175.63439453 45.29077148 175.12939453 C45.29077148 205.48939453 45.29077148 235.84939453 45.29077148 267.12939453 C36.89639648 267.15001953 28.50202148 267.17064453 19.85327148 267.19189453 C17.19981689 267.20099854 14.5463623 267.21010254 11.8125 267.21948242 C9.72322643 267.22240139 7.63395229 267.22494999 5.54467773 267.22705078 C4.44861206 267.23216675 3.35254639 267.23728271 2.2232666 267.24255371 C1.187948 267.24267456 0.15262939 267.24279541 -0.9140625 267.24291992 C-2.26974586 267.24625084 -2.26974586 267.24625084 -3.65281677 267.24964905 C-5.70922852 267.12939453 -5.70922852 267.12939453 -6.70922852 266.12939453 C-6.80580472 264.71153748 -6.83294701 263.28888569 -6.83227634 261.86774349 C-6.83426739 260.94265262 -6.83625844 260.01756174 -6.83830982 259.06443781 C-6.83394056 257.52215512 -6.83394056 257.52215512 -6.82948303 255.94871521 C-6.83033746 254.86571941 -6.83119188 253.78272361 -6.8320722 252.66690975 C-6.8337302 249.00782253 -6.82820041 245.34878032 -6.82275391 241.68969727 C-6.82247208 239.07874554 -6.82262968 236.46779373 -6.82319641 233.85684204 C-6.82372183 228.22013819 -6.82057315 222.58344587 -6.81495857 216.94674492 C-6.80684601 208.79693144 -6.8042286 200.64712356 -6.80297058 192.49730647 C-6.80077968 179.27611456 -6.79411855 166.0549288 -6.78466797 152.83374023 C-6.77549484 139.98738638 -6.76841352 127.1410342 -6.76416016 114.29467773 C-6.76389743 113.50338663 -6.76363471 112.71209553 -6.76336402 111.8968259 C-6.76205903 107.92731766 -6.76079531 103.95780942 -6.75955212 99.98830116 C-6.74917831 67.0353278 -6.73155895 34.08236199 -6.70922852 1.12939453 C-4.27684856 -0.08679544 -2.71783068 0.00250548 0 0 Z " fill="#DC0019" transform="translate(245.709228515625,149.87060546875)"/>
<path d="M0 0 C1.46657043 -0.00472824 1.46657043 -0.00472824 2.96276855 -0.009552 C4.0262854 -0.00752777 5.08980225 -0.00550354 6.18554688 -0.00341797 C7.81127625 -0.00485306 7.81127625 -0.00485306 9.46984863 -0.00631714 C11.76652077 -0.00699912 14.06319482 -0.00514358 16.35986328 -0.00097656 C19.88904115 0.00437141 23.41809174 -0.00092097 26.94726562 -0.00732422 C29.17252632 -0.00666344 31.39778694 -0.00538228 33.62304688 -0.00341797 C34.68656372 -0.0054422 35.75008057 -0.00746643 36.8458252 -0.009552 C37.82353882 -0.00639984 38.80125244 -0.00324768 39.80859375 0 C40.67383667 0.00079559 41.53907959 0.00159119 42.43054199 0.00241089 C44.40429688 0.12939453 44.40429688 0.12939453 45.40429688 1.12939453 C45.52728853 2.816488 45.58214946 4.50860356 45.60961914 6.19995117 C45.63953697 7.82151878 45.63953697 7.82151878 45.6700592 9.47584534 C45.6867717 10.65186813 45.70348419 11.82789093 45.72070312 13.03955078 C45.74148422 14.23672226 45.76226532 15.43389374 45.78367615 16.66734314 C45.84929966 20.5087994 45.9081159 24.35032654 45.96679688 28.19189453 C46.00996993 30.7889072 46.0535838 33.38591259 46.09765625 35.98291016 C46.20582726 42.36499989 46.30480567 48.74713986 46.40429688 55.12939453 C60.59429688 55.45939453 74.78429688 55.78939453 89.40429688 56.12939453 C89.43523437 65.75095703 89.43523437 65.75095703 89.46679688 75.56689453 C89.47590088 77.59386475 89.48500488 79.62083496 89.49438477 81.70922852 C89.49730391 83.30631443 89.49985247 84.90340108 89.50195312 86.50048828 C89.50706909 87.33745239 89.51218506 88.1744165 89.51745605 89.03674316 C89.51776612 91.06797718 89.46669875 93.09911924 89.40429688 95.12939453 C88.40429688 96.12939453 88.40429688 96.12939453 86.65159607 96.24964905 C85.50909142 96.24631813 85.50909142 96.24631813 84.34350586 96.24291992 C83.48268906 96.24284439 82.62187225 96.24276886 81.73497009 96.24269104 C80.79955887 96.23752975 79.86414764 96.23236847 78.90039062 96.22705078 C77.94737564 96.22563583 76.99436066 96.22422089 76.01246643 96.22276306 C72.95554522 96.21714605 69.89869611 96.20459069 66.84179688 96.19189453 C64.77474064 96.18688172 62.70768326 96.18231844 60.640625 96.17822266 C55.561821 96.16717109 50.48307118 96.14989508 45.40429688 96.12939453 C45.44244702 108.96069934 45.5019444 121.79171448 45.58819962 134.62279129 C45.62759749 140.5817088 45.65982375 146.54048023 45.67529297 152.49951172 C45.69051008 158.25742391 45.7250455 164.01493428 45.7726059 169.77266693 C45.78736761 171.96208948 45.79533488 174.15156941 45.79618073 176.34104156 C45.74505875 194.39349957 45.74505875 194.39349957 52.09179688 211.06689453 C61.80926222 219.73382308 72.97835419 220.40728771 85.46679688 220.75439453 C89.40617187 220.87814453 93.34554688 221.00189453 97.40429688 221.12939453 C97.40429688 236.30939453 97.40429688 251.48939453 97.40429688 267.12939453 C56.5274344 267.58358189 56.5274344 267.58358189 43.40429688 264.12939453 C42.7478418 263.95778809 42.09138672 263.78618164 41.41503906 263.609375 C32.4947227 261.19480461 24.87692389 257.59065005 17.40429688 252.12939453 C16.33179688 251.36626953 15.25929688 250.60314453 14.15429688 249.81689453 C-3.33983549 232.72035609 -5.81463767 208.6456325 -6.08405495 185.48642349 C-6.09434416 184.54618206 -6.10463337 183.60594063 -6.11523438 182.63720703 C-6.14162611 180.6771497 -6.16838132 178.71709724 -6.19548035 176.75704956 C-6.24956409 172.67418221 -6.29643364 168.5913076 -6.33862305 164.50830078 C-6.3935734 159.28628114 -6.47113926 154.06486531 -6.5545702 148.84323311 C-6.61583448 144.80610162 -6.66294331 140.76889575 -6.70602989 136.73153305 C-6.72868964 134.80582213 -6.75622635 132.88016193 -6.7888279 130.95459366 C-6.83268068 128.26555416 -6.85687095 125.57700794 -6.8762207 122.88769531 C-6.89321518 122.1010701 -6.91020966 121.31444489 -6.92771912 120.50398254 C-6.94119097 113.3852718 -4.9600583 108.12683132 -0.03320312 102.81689453 C0.56621094 102.16076172 1.165625 101.50462891 1.78320312 100.82861328 C2.97428628 99.58012853 4.18417531 98.34951609 5.40429688 97.12939453 C4.85528214 97.11908707 4.3062674 97.1087796 3.74061584 97.09815979 C-1.95291593 96.99031506 -7.64628234 96.87570004 -13.33959961 96.75708008 C-15.46684319 96.71366031 -17.59412323 96.6719906 -19.72143555 96.63208008 C-22.77208463 96.57454746 -25.82254901 96.51080486 -28.87304688 96.44580078 C-29.83033188 96.42908829 -30.78761688 96.41237579 -31.77391052 96.39515686 C-32.65474808 96.37521164 -33.53558563 96.35526642 -34.44311523 96.3347168 C-35.2225499 96.31917252 -36.00198456 96.30362823 -36.80503845 96.28761292 C-38.59570312 96.12939453 -38.59570312 96.12939453 -39.59570312 95.12939453 C-39.6843552 92.24505633 -39.71091608 89.38477295 -39.69335938 86.50048828 C-39.69194443 85.63625748 -39.69052948 84.77202667 -39.68907166 83.88160706 C-39.68345551 81.11000161 -39.67090032 78.33847573 -39.65820312 75.56689453 C-39.6531902 73.69254674 -39.64862694 71.81819768 -39.64453125 69.94384766 C-39.63432994 65.33897432 -39.6147578 60.73427393 -39.59570312 56.12939453 C-28.70570313 55.79939453 -17.81570313 55.46939453 -6.59570312 55.12939453 C-6.53511719 51.24287109 -6.47453125 47.35634766 -6.41210938 43.35205078 C-6.35037729 39.60569194 -6.28696587 35.85936504 -6.22338867 32.11303711 C-6.17996188 29.50076109 -6.13829274 26.88845525 -6.09838867 24.27612305 C-6.04087306 20.53050734 -5.97712549 16.78504284 -5.91210938 13.03955078 C-5.89539688 11.86352798 -5.87868439 10.68750519 -5.86146545 9.47584534 C-5.84152023 8.39480026 -5.82157501 7.31375519 -5.80102539 6.19995117 C-5.78548111 5.24286758 -5.76993683 4.285784 -5.75392151 3.29969788 C-5.46353245 -0.68360876 -3.52062669 0.00323723 0 0 Z " fill="#DC0019" transform="translate(992.595703125,149.87060546875)"/>
<path d="M0 0 C1.010625 -0.01675781 2.02125 -0.03351562 3.0625 -0.05078125 C6.44876842 0.36799929 8.27974116 1.27941456 11 3.3125 C14.30381417 8.81885695 14.2497749 13.05126858 13 19.3125 C11.72503673 23.67482903 10.17786193 27.9231567 8.609375 32.1875 C8.15167024 33.4535489 7.69481399 34.71990483 7.23873901 35.98654175 C6.00980203 39.39154891 4.76845404 42.791907 3.5246048 46.19149017 C2.48451699 49.03944112 1.45211434 51.89015022 0.41988564 54.74095726 C-4.96522181 69.61350788 -10.41389254 84.46277892 -15.8828125 99.3046875 C-16.1169133 99.9400367 -16.3510141 100.57538589 -16.59220886 101.2299881 C-19.02252333 107.82428135 -21.45876442 114.41632591 -23.90722656 121.00390625 C-24.71729813 123.18731409 -25.52687795 125.37090445 -26.3359375 127.5546875 C-26.72389496 128.60182419 -27.11185242 129.64896088 -27.51156616 130.72782898 C-30.80385495 139.66866432 -33.92062599 148.66716291 -36.94955444 157.70053101 C-43.67024443 177.49361574 -43.67024443 177.49361574 -50 182.3125 C-51.32 182.3125 -52.64 182.3125 -54 182.3125 C-54.06993164 181.67860352 -54.13986328 181.04470703 -54.21191406 180.39160156 C-55.88996616 163.44185669 -55.88996616 163.44185669 -61 147.3125 C-61.47050781 146.26320312 -61.94101563 145.21390625 -62.42578125 144.1328125 C-70.35364377 128.0500365 -82.87403367 117.75789296 -99 110.3125 C-97.56893373 98.34040904 -88.02533007 89.61819095 -80 81.3125 C-79.33097656 80.59191406 -78.66195313 79.87132813 -77.97265625 79.12890625 C-72.24752193 73.11327886 -65.63665313 68.25907376 -59 63.3125 C-57.70642578 62.33796875 -57.70642578 62.33796875 -56.38671875 61.34375 C-54.59522756 59.99456303 -52.79839028 58.65247707 -51 57.3125 C-72.6734622 69.35639577 -93.09621166 84.38661011 -110.88671875 101.703125 C-113.38173006 103.60320755 -114.90011884 103.94108696 -118 104.3125 C-120.54858398 103.87866211 -120.54858398 103.87866211 -123.24609375 103.08984375 C-124.2417334 102.80181885 -125.23737305 102.51379395 -126.26318359 102.21704102 C-127.83447021 101.73835571 -127.83447021 101.73835571 -129.4375 101.25 C-130.51338379 100.92636475 -131.58926758 100.60272949 -132.69775391 100.26928711 C-161.84370327 91.3210463 -161.84370327 91.3210463 -168.625 79.3125 C-170.76917793 74.12988983 -170.75408895 69.62189741 -169 64.25 C-161.62144659 53.41274967 -149.43980491 49.59008741 -137.5 45.6328125 C-136.52306183 45.30347717 -135.54612366 44.97414185 -134.5395813 44.63482666 C-132.44812693 43.93027821 -130.3558288 43.22823023 -128.26275635 42.52850342 C-122.64764729 40.65091817 -117.03903771 38.75408108 -111.4296875 36.859375 C-110.29280487 36.47586884 -109.15592224 36.09236267 -107.98458862 35.69723511 C-97.33864578 32.10115918 -86.72808056 28.407707 -76.125 24.6875 C-59.08178118 18.71166259 -42.00024616 12.85403633 -24.89501953 7.05810547 C-23.99988647 6.75430466 -23.10475342 6.45050385 -22.18249512 6.13749695 C-20.51453139 5.57151306 -18.84618162 5.00666502 -17.17736816 4.44319153 C-14.13100348 3.40920267 -11.12533307 2.36368392 -8.14599609 1.14697266 C-5.36143415 0.06419305 -2.97942764 0.01140087 0 0 Z " fill="#DC0019" transform="translate(1260,1.6875)"/>
<path d="M0 0 C0.97448593 -0.00315216 1.94897186 -0.00630432 2.95298767 -0.009552 C4.01336746 -0.00752777 5.07374725 -0.00550354 6.16625977 -0.00341797 C7.24770767 -0.00437469 8.32915558 -0.00533142 9.44337463 -0.00631714 C11.73585061 -0.00699918 14.02832849 -0.00514324 16.32080078 -0.00097656 C19.83899257 0.00436617 23.35705638 -0.00091811 26.87524414 -0.00732422 C29.09724963 -0.00666334 31.31925504 -0.00538198 33.54125977 -0.00341797 C35.12879311 -0.00645432 35.12879311 -0.00645432 36.74839783 -0.009552 C37.72603592 -0.00639984 38.70367401 -0.00324768 39.7109375 0 C41.00547096 0.00119339 41.00547096 0.00119339 42.32615662 0.00241089 C44.42016602 0.12939453 44.42016602 0.12939453 46.42016602 1.12939453 C46.44303142 34.87180526 46.46066375 68.61421408 46.47123135 102.35663083 C46.47248212 106.33597981 46.47377644 110.31532878 46.47509766 114.29467773 C46.47535997 115.08692834 46.47562228 115.87917894 46.47589254 116.69543714 C46.48024942 129.54051875 46.48813707 142.3855959 46.49731881 155.23067486 C46.50665483 168.40097393 46.51222152 181.57127067 46.51425451 194.74157292 C46.51562985 202.8749774 46.519981 211.00836929 46.52808248 219.14176989 C46.53396995 225.36781713 46.53462511 231.59385468 46.5332737 237.81990433 C46.53355023 240.38183864 46.53555808 242.94377339 46.53937149 245.50570488 C46.54430151 248.98672633 46.54316687 252.46769265 46.54042053 255.94871521 C46.54333337 256.97690367 46.54624622 258.00509212 46.54924732 259.06443781 C46.54725628 259.98952868 46.54526523 260.91461956 46.54321384 261.86774349 C46.54378342 263.07468456 46.54378342 263.07468456 46.54436451 264.30600828 C46.42016602 266.12939453 46.42016602 266.12939453 45.42016602 267.12939453 C43.8240562 267.22273159 42.22383173 267.24684826 40.625 267.24291992 C39.60401718 267.24284439 38.58303436 267.24276886 37.53111267 267.24269104 C36.42071121 267.23752975 35.31030975 267.23236847 34.16625977 267.22705078 C33.03567642 267.22563583 31.90509308 267.22422089 30.74024963 267.22276306 C27.11269536 267.21714472 23.48520178 267.20458911 19.85766602 267.19189453 C17.40519295 267.18688189 14.95271891 267.18231858 12.50024414 267.17822266 C6.47353056 267.16716933 0.44685262 267.15041337 -5.57983398 267.12939453 C-5.60269937 233.2595897 -5.62033171 199.38978679 -5.63089931 165.51997596 C-5.63215009 161.52560571 -5.63344441 157.53123547 -5.63476562 153.53686523 C-5.63502794 152.74162402 -5.63529025 151.9463828 -5.63556051 151.12704336 C-5.6399174 138.23346281 -5.64780505 125.33988671 -5.65698678 112.4463088 C-5.66632279 99.22628918 -5.67188948 86.00627189 -5.67392248 72.7862491 C-5.67529782 64.62213518 -5.67964899 56.45803379 -5.68775045 48.29392373 C-5.69363791 42.04437546 -5.69429308 35.79483684 -5.69294167 29.54528618 C-5.6932182 26.97367653 -5.69522606 24.40206643 -5.69903946 21.83045959 C-5.70396945 18.33630103 -5.70283485 14.84219739 -5.7000885 11.34803772 C-5.70445776 9.79991861 -5.70445776 9.79991861 -5.70891529 8.22052437 C-5.70692424 7.2919501 -5.7049332 6.36337583 -5.70288181 5.40666294 C-5.70326153 4.5989978 -5.70364125 3.79133266 -5.70403248 2.95919281 C-5.4535844 -0.73062213 -3.15421584 0.00291046 0 0 Z " fill="#DB0019" transform="translate(886.579833984375,149.87060546875)"/>
<path d="M0 0 C0.88602402 0.00222061 1.77204803 0.00444122 2.68492126 0.00672913 C3.68588333 0.00680466 4.6868454 0.00688019 5.71813965 0.00695801 C6.80666733 0.01211929 7.89519501 0.01728058 9.01670837 0.02259827 C10.67928932 0.02472069 10.67928932 0.02472069 12.37545776 0.02688599 C15.93168281 0.03250418 19.48784596 0.04505977 23.04405212 0.05775452 C25.44834809 0.06276717 27.85264504 0.06733048 30.25694275 0.07142639 C36.16516716 0.08247952 42.07335522 0.09923535 47.98155212 0.12025452 C49.51909574 3.19534175 49.11848993 6.42092173 49.10853577 9.79495239 C49.11009576 10.59633194 49.11165575 11.39771149 49.11326301 12.22337526 C49.11726923 14.92347646 49.11408483 17.62352198 49.11094666 20.32362366 C49.11230085 22.25330641 49.11408089 24.1829889 49.11625671 26.1126709 C49.12082855 31.36452465 49.11904259 36.61635883 49.11587763 41.86821294 C49.11335311 47.35306048 49.11569179 52.8379063 49.11726379 58.32275391 C49.11908506 67.5339844 49.11668013 76.74520688 49.11192322 85.95643616 C49.10647907 96.62193158 49.10824454 107.28740789 49.11374962 117.95290285 C49.11828004 127.09428607 49.1189317 136.23566351 49.11631095 145.37704748 C49.11474799 150.84378621 49.11455497 156.31051594 49.11784744 161.7772541 C49.12072517 166.91452878 49.11875229 172.05177869 49.11295319 177.18905067 C49.11162513 179.08016163 49.11202047 180.97127465 49.11421585 182.8623848 C49.11692552 185.43246526 49.11354851 188.00246504 49.10853577 190.57254028 C49.11076649 191.33088907 49.11299721 192.08923785 49.11529553 192.8705669 C49.09570208 198.00610456 49.09570208 198.00610456 47.98155212 199.12025452 C46.38544231 199.21359157 44.78521784 199.23770824 43.18638611 199.23377991 C42.16540329 199.23370438 41.14442047 199.23362885 40.09249878 199.23355103 C38.98209732 199.22838974 37.87169586 199.22322845 36.72764587 199.21791077 C35.59706253 199.21649582 34.46647919 199.21508087 33.30163574 199.21362305 C29.67408147 199.20800471 26.04658789 199.1954491 22.41905212 199.18275452 C19.96657905 199.17774188 17.51410502 199.17317856 15.06163025 199.16908264 C9.03491667 199.15802932 3.00823873 199.14127335 -3.01844788 199.12025452 C-3.0417737 173.32153326 -3.05942549 147.52281357 -3.07026005 121.7240839 C-3.07542368 109.74619253 -3.08246765 97.7683077 -3.09388733 85.79042053 C-3.10383212 75.35456969 -3.11030081 64.91872358 -3.11253637 54.48286813 C-3.11384383 48.95349856 -3.11693187 43.42414254 -3.12417793 37.8947773 C-3.13093492 32.69679579 -3.1330655 27.49883349 -3.13155556 22.30084801 C-3.13183203 20.38716147 -3.13383905 18.47347432 -3.13765335 16.55979156 C-3.14258559 13.95895521 -3.14144792 11.35819259 -3.13870239 8.75735474 C-3.14161523 7.98985982 -3.14452808 7.22236489 -3.14752918 6.43161255 C-3.12955267 0.1864516 -3.12955267 0.1864516 0 0 Z " fill="#DC0019" transform="translate(1119.0184478759766,217.87974548339844)"/>
<path d="M0 0 C1.64510941 0.00015915 3.29022379 0.00585551 4.93530273 0.01586914 C6.23164894 0.01799156 6.23164894 0.01799156 7.55418396 0.02015686 C10.32578941 0.025773 13.09731528 0.0383282 15.86889648 0.05102539 C17.74324428 0.05603831 19.61759334 0.06060158 21.49194336 0.06469727 C26.09679192 0.07574767 30.70158069 0.09302309 35.30639648 0.11352539 C38.45094213 6.10896262 40.91948028 12.1494574 43.19702148 18.51977539 C43.54649841 19.48508179 43.89597534 20.45038818 44.25604248 21.44494629 C45.36073356 24.49951089 46.45866489 27.55645375 47.55639648 30.61352539 C48.30855364 32.69702015 49.06115342 34.78035518 49.81420898 36.86352539 C51.65006025 41.94502294 53.48038212 47.02848528 55.30639648 52.11352539 C57.09301894 49.43359171 58.02997621 47.38253703 59.078125 44.38256836 C59.41509903 43.42502655 59.75207306 42.46748474 60.09925842 41.48092651 C60.45765305 40.44960602 60.81604767 39.41828552 61.18530273 38.35571289 C61.74349953 36.76752243 61.74349953 36.76752243 62.31297302 35.14724731 C63.50224769 31.76238264 64.6860248 28.37563249 65.86889648 24.98852539 C67.05579457 21.59444275 68.24390711 18.20080642 69.43553162 14.80838013 C70.1773937 12.69600602 70.91644091 10.58264095 71.65248108 8.4682312 C71.98630295 7.51699371 72.32012482 6.56575623 72.6640625 5.58569336 C72.95781265 4.74424774 73.25156281 3.90280212 73.55421448 3.03585815 C74.30639648 1.11352539 74.30639648 1.11352539 75.30639648 0.11352539 C78.19073469 0.02487331 81.05101806 -0.00168757 83.93530273 0.01586914 C85.23164894 0.01799156 85.23164894 0.01799156 86.55418396 0.02015686 C89.32578941 0.025773 92.09731528 0.0383282 94.86889648 0.05102539 C96.74324428 0.05603831 98.61759334 0.06060158 100.49194336 0.06469727 C105.09679192 0.07574767 109.70158069 0.09302309 114.30639648 0.11352539 C114.30639648 4.07352539 114.30639648 8.03352539 114.30639648 12.11352539 C110.01639648 12.11352539 105.72639648 12.11352539 101.30639648 12.11352539 C101.30639648 30.92352539 101.30639648 49.73352539 101.30639648 69.11352539 C105.59639648 69.11352539 109.88639648 69.11352539 114.30639648 69.11352539 C114.30639648 72.74352539 114.30639648 76.37352539 114.30639648 80.11352539 C99.78639648 80.11352539 85.26639648 80.11352539 70.30639648 80.11352539 C70.30639648 76.48352539 70.30639648 72.85352539 70.30639648 69.11352539 C73.60639648 69.11352539 76.90639648 69.11352539 80.30639648 69.11352539 C79.97639648 54.26352539 79.64639648 39.41352539 79.30639648 24.11352539 C78.01862305 28.07223633 76.73084961 32.03094727 75.40405273 36.10961914 C74.37787152 39.25838477 73.35108084 42.40695019 72.32387543 45.55538177 C71.23841925 48.88292442 70.15404951 52.21081227 69.07226562 55.53955078 C67.83203741 59.3556686 66.58693672 63.17018076 65.34155273 66.98461914 C64.95298599 68.18251572 64.56441925 69.38041229 64.16407776 70.61460876 C63.62363075 72.2662075 63.62363075 72.2662075 63.07226562 73.95117188 C62.59594444 75.4134446 62.59594444 75.4134446 62.11000061 76.90525818 C61.30639648 79.11352539 61.30639648 79.11352539 60.30639648 80.11352539 C57.77590246 80.18666106 55.27334812 80.20600066 52.74389648 80.17602539 C51.67751953 80.16925781 51.67751953 80.16925781 50.58959961 80.16235352 C48.82849635 80.15053403 47.06743613 80.13259802 45.30639648 80.11352539 C40.34372856 68.94863195 36.47914232 57.40267304 32.49389648 45.86352539 C30.12202148 39.01602539 27.75014648 32.16852539 25.30639648 25.11352539 C24.97639648 39.63352539 24.64639648 54.15352539 24.30639648 69.11352539 C27.93639648 69.11352539 31.56639648 69.11352539 35.30639648 69.11352539 C35.30639648 72.74352539 35.30639648 76.37352539 35.30639648 80.11352539 C22.10639648 80.11352539 8.90639648 80.11352539 -4.69360352 80.11352539 C-4.69360352 76.48352539 -4.69360352 72.85352539 -4.69360352 69.11352539 C-0.07360352 69.11352539 4.54639648 69.11352539 9.30639648 69.11352539 C8.97639648 50.63352539 8.64639648 32.15352539 8.30639648 13.11352539 C4.01639648 12.78352539 -0.27360352 12.45352539 -4.69360352 12.11352539 C-4.79125977 3.61743164 -4.79125977 3.61743164 -4.69360352 1.11352539 C-3.69360352 0.11352539 -3.69360352 0.11352539 0 0 Z " fill="#DC0019" transform="translate(965.693603515625,472.886474609375)"/>
<path d="M0 0 C28.05 0 56.1 0 85 0 C85 10.89 85 21.78 85 33 C81.37 33 77.74 33 74 33 C73.90203125 32.20335937 73.8040625 31.40671875 73.703125 30.5859375 C72.52262573 22.0629785 72.52262573 22.0629785 68 15 C64.51606095 12.71546609 61.37041478 12.69395828 57.265625 12.5859375 C55.97011719 12.54726563 54.67460938 12.50859375 53.33984375 12.46875 C51.97656716 12.43729733 50.61328582 12.40604993 49.25 12.375 C47.87106972 12.33679531 46.49216266 12.29774213 45.11328125 12.2578125 C41.74241078 12.16352242 38.37122388 12.0806716 35 12 C35 18.93 35 25.86 35 33 C39.95 32.67 44.9 32.34 50 32 C50.144375 30.205625 50.28875 28.41125 50.4375 26.5625 C50.875 21.125 50.875 21.125 52 20 C55.63 20 59.26 20 63 20 C63 32.54 63 45.08 63 58 C59.04 58 55.08 58 51 58 C50.83723958 55.4609375 50.67447917 52.921875 50.51171875 50.3828125 C50.2117961 47.63778399 50.2117961 47.63778399 47 46 C44.03157342 45.54084493 44.03157342 45.54084493 40.8125 45.375 C37.9353125 45.189375 37.9353125 45.189375 35 45 C35 52.92 35 60.84 35 69 C39.1676339 68.91267241 43.33322241 68.80572228 47.5 68.6875 C48.67304687 68.66494141 49.84609375 68.64238281 51.0546875 68.61914062 C61.76384455 68.36879201 61.76384455 68.36879201 70.92578125 63.296875 C72.44525551 60.04796276 72.82420851 56.77626047 73.1875 53.25 C73.26935547 52.55261719 73.35121094 51.85523438 73.43554688 51.13671875 C73.63477133 49.42573224 73.81889929 47.71299963 74 46 C77.96 46 81.92 46 86 46 C86 57.22 86 68.44 86 80 C57.62 80 29.24 80 0 80 C0 76.37 0 72.74 0 69 C6.435 68.505 6.435 68.505 13 68 C13.33 49.52 13.66 31.04 14 12 C9.38 12 4.76 12 0 12 C0 8.04 0 4.08 0 0 Z " fill="#DC0019" transform="translate(1082,473)"/>
<path d="M0 0 C6.84064681 4.05878377 12.06798549 9.56472776 14.5625 17.1875 C16.38930769 24.89805195 15.93561875 31.85580502 12.5625 39.0625 C7.97645677 45.68045473 2.63934421 51.35646053 -5.4375 53.0625 C-14.72351979 54.11471126 -22.78586846 53.79775195 -30.4375 48.0625 C-36.5048282 42.66292329 -39.92901777 37.07104994 -40.75 28.984375 C-41.08792644 19.90260204 -39.26833433 13.53528068 -33.8125 6.3125 C-25.10311422 -2.95878164 -11.62854377 -5.14236065 0 0 Z " fill="#DC0019" transform="translate(1154.4375,141.9375)"/>
<path d="M0 0 C15.84 0 31.68 0 48 0 C48 3.96 48 7.92 48 12 C43.71 12 39.42 12 35 12 C35 30.81 35 49.62 35 69 C39.29 69 43.58 69 48 69 C48 72.96 48 76.92 48 81 C32.16 81 16.32 81 0 81 C0 77.04 0 73.08 0 69 C6.435 68.505 6.435 68.505 13 68 C13 49.85 13 31.7 13 13 C8.71 12.67 4.42 12.34 0 12 C0 8.04 0 4.08 0 0 Z " fill="#DC0019" transform="translate(912,473)"/>
<path d="M0 0 C2.64 0 5.28 0 8 0 C8.33 6.6 8.66 13.2 9 20 C11.97 17.525 11.97 17.525 15 15 C20.98124663 13.00625112 27.67434022 13.00091424 33.4375 15.6875 C38.74764223 18.79772617 41.49676517 23.03108409 43.4609375 28.76171875 C45.15848846 35.81024557 44.41899352 42.61513259 41 49 C38.53048257 52.98922046 35.57896459 55.8912046 31.08203125 57.52734375 C23.08079999 59.34375835 16.91916922 58.22838119 10 54 C9.67 53.67 9.34 53.34 9 53 C8.505 55.475 8.505 55.475 8 58 C5.66705225 58.04241723 3.33297433 58.04092937 1 58 C0 57 0 57 -0.12025452 54.71580505 C-0.11803391 53.70542679 -0.11581329 52.69504852 -0.11352539 51.65405273 C-0.11344986 50.5129454 -0.11337433 49.37183807 -0.11329651 48.19615173 C-0.10813522 46.9545076 -0.10297394 45.71286346 -0.09765625 44.43359375 C-0.0962413 43.16983414 -0.09482635 41.90607452 -0.09336853 40.60401917 C-0.08870582 37.23875111 -0.0797148 33.8735501 -0.06866455 30.50830078 C-0.05844846 27.0765033 -0.05387049 23.64469891 -0.04882812 20.21289062 C-0.0377738 13.47524176 -0.0210171 6.73762475 0 0 Z M10.38671875 26.83984375 C7.97090614 30.60306733 7.88492394 34.606802 8 39 C9.04787773 43.58121753 11.3547617 47.03824388 15 50 C19.77364362 51.59121454 24.15016855 51.79879085 28.75 49.8125 C32.25536595 46.98873298 34.57096705 44.28709884 36 40 C36.44654909 33.19012631 35.60691723 29.01424805 31 23.6875 C27.65383409 20.86417252 24.35574791 20.65959975 20.0625 20.71484375 C15.8945293 21.29109727 13.08244936 23.76553596 10.38671875 26.83984375 Z " fill="#6D6E70" transform="translate(802,496)"/>
<path d="M0 0 C2.97 0 5.94 0 9 0 C12.76626629 7.7234493 15.78264039 15.62853024 18.67602539 23.7121582 C18.96340576 24.51097412 19.25078613 25.30979004 19.546875 26.1328125 C19.80307617 26.85355957 20.05927734 27.57430664 20.32324219 28.31689453 C20.87414122 30.00489614 20.87414122 30.00489614 22 31 C25.96 20.77 29.92 10.54 34 0 C36.64 0 39.28 0 42 0 C41.41021416 3.32412514 40.59839536 6.29660751 39.31347656 9.41625977 C38.96931702 10.2580629 38.62515747 11.09986603 38.27056885 11.96717834 C37.89768738 12.86617355 37.52480591 13.76516876 37.140625 14.69140625 C36.75436951 15.63249741 36.36811401 16.57358856 35.97015381 17.54319763 C34.7342978 20.55137742 33.49221694 23.55694215 32.25 26.5625 C31.42928255 28.55777619 30.6089659 30.55321729 29.7890625 32.54882812 C27.86501932 37.22878478 25.93387697 41.90576249 23.99926758 46.58135986 C23.11002824 48.73368623 22.22488766 50.8876262 21.34179688 53.04248047 C20.89384766 54.13061035 20.44589844 55.21874023 19.984375 56.33984375 C19.61538086 57.23952881 19.24638672 58.13921387 18.86621094 59.06616211 C18 61 18 61 17 62 C14.32941149 62.14115161 11.67567762 62.04247107 9 62 C9.42152344 60.91460938 9.84304688 59.82921875 10.27734375 58.7109375 C10.83102409 57.26573796 11.38439305 55.82041909 11.9375 54.375 C12.21529297 53.66214844 12.49308594 52.94929687 12.77929688 52.21484375 C13.04677734 51.51230469 13.31425781 50.80976562 13.58984375 50.0859375 C13.95903931 49.1276001 13.95903931 49.1276001 14.33569336 48.14990234 C16.48762269 41.18559155 15.42157943 37.43006077 12.59765625 30.91796875 C12.24110458 30.06318436 11.88455292 29.20839996 11.51719666 28.32771301 C10.37948657 25.60823601 9.22162999 22.89790704 8.0625 20.1875 C6.91154055 17.45747888 5.76467339 14.72576831 4.61851501 11.99372864 C3.90448788 10.29608007 3.18676811 8.59997921 2.46510315 6.90556335 C0 1.10493476 0 1.10493476 0 0 Z " fill="#6D6E71" transform="translate(849,511)"/>
</svg>
